<svg width="533" height="339" viewBox="0 0 533 339" fill="none" xmlns="http://www.w3.org/2000/svg">
<rect x="227.5" y="1.5" width="77" height="77" rx="24.5" fill="#F8FAFC" fill-opacity="0.5" stroke="white"/>
<g filter="url(#filter0_d_608_251)">
<rect x="234" y="8" width="65" height="65" rx="20" fill="#F1F5F9" fill-opacity="0.5" shape-rendering="crispEdges"/>
<rect x="234.5" y="8.5" width="64" height="64" rx="19.5" stroke="#F1F5F9" shape-rendering="crispEdges"/>
</g>
<rect x="338.5" y="64.5" width="77" height="77" rx="24.5" fill="#F8FAFC" fill-opacity="0.5" stroke="white"/>
<g filter="url(#filter1_d_608_251)">
<rect x="345" y="71" width="65" height="65" rx="20" fill="#F1F5F9" fill-opacity="0.5" shape-rendering="crispEdges"/>
<rect x="345.5" y="71.5" width="64" height="64" rx="19.5" stroke="#F1F5F9" shape-rendering="crispEdges"/>
</g>
<circle cx="337.5" cy="102.5" r="3.5" fill="#D9D9D9"/>
<path d="M303.883 38.5309C339.172 44.8609 303.883 102.531 337.883 102.531" stroke="#D9D9D9" stroke-width="2.5" stroke-linecap="round"/>
<rect x="449.446" y="128.699" width="77" height="77" rx="24.5" fill="#F8FAFC" fill-opacity="0.5" stroke="white"/>
<g filter="url(#filter2_d_608_251)">
<rect x="455.946" y="135.199" width="65" height="65" rx="20" fill="#F1F5F9" fill-opacity="0.5" shape-rendering="crispEdges"/>
<rect x="456.446" y="135.699" width="64" height="64" rx="19.5" stroke="#F1F5F9" shape-rendering="crispEdges"/>
</g>
<circle cx="448.446" cy="166.699" r="3.5" fill="#D9D9D9"/>
<path d="M414.829 102.73C450.118 109.06 414.829 166.729 448.829 166.73" stroke="#D9D9D9" stroke-width="2.5" stroke-linecap="round"/>
<rect x="-0.5" y="0.5" width="77" height="77" rx="24.5" transform="matrix(-1 0 0 1 193.946 64.1987)" fill="#F8FAFC" fill-opacity="0.5" stroke="white"/>
<g filter="url(#filter3_d_608_251)">
<rect width="65" height="65" rx="20" transform="matrix(-1 0 0 1 187.946 71.1987)" fill="#F1F5F9" fill-opacity="0.5" shape-rendering="crispEdges"/>
<rect x="-0.5" y="0.5" width="64" height="64" rx="19.5" transform="matrix(-1 0 0 1 186.946 71.1987)" stroke="#F1F5F9" shape-rendering="crispEdges"/>
</g>
<circle cx="3.5" cy="3.5" r="3.5" transform="matrix(-1 0 0 1 198.946 99.1987)" fill="#D9D9D9"/>
<path d="M229.063 38.7296C193.774 45.0596 229.062 102.729 195.063 102.73" stroke="#D9D9D9" stroke-width="2.5" stroke-linecap="round"/>
<rect x="-0.5" y="0.5" width="77" height="77" rx="24.5" transform="matrix(-1 0 0 1 83 128.397)" fill="#F8FAFC" fill-opacity="0.5" stroke="white"/>
<g filter="url(#filter4_d_608_251)">
<rect width="65" height="65" rx="20" transform="matrix(-1 0 0 1 77 135.397)" fill="#F1F5F9" fill-opacity="0.5" shape-rendering="crispEdges"/>
<rect x="-0.5" y="0.5" width="64" height="64" rx="19.5" transform="matrix(-1 0 0 1 76 135.397)" stroke="#F1F5F9" shape-rendering="crispEdges"/>
</g>
<circle cx="3.5" cy="3.5" r="3.5" transform="matrix(-1 0 0 1 88 163.397)" fill="#D9D9D9"/>
<path d="M118.117 102.928C82.8281 109.258 118.116 166.928 84.1166 166.928" stroke="#D9D9D9" stroke-width="2.5" stroke-linecap="round"/>
<g filter="url(#filter5_f_608_251)">
<circle cx="266.5" cy="40.5" r="21.5" fill="#FF9900" fill-opacity="0.19"/>
</g>
<g filter="url(#filter6_f_608_251)">
<circle cx="155.5" cy="104.5" r="21.5" fill="#0071CE" fill-opacity="0.19"/>
</g>
<g filter="url(#filter7_f_608_251)">
<circle cx="377.5" cy="103.5" r="21.5" fill="#CEC000" fill-opacity="0.24"/>
</g>
<g filter="url(#filter8_f_608_251)">
<circle cx="488" cy="168" r="25" fill="#5BB178" fill-opacity="0.3"/>
</g>
<g filter="url(#filter9_f_608_251)">
<circle cx="45" cy="167" r="25" fill="#A88210" fill-opacity="0.3"/>
</g>
<g clip-path="url(#clip0_608_251)">
<path d="M279.713 51.6793C264.331 59 254.785 52.875 248.674 49.1547C248.296 48.9203 247.653 49.2096 248.21 49.8501C250.246 52.3186 256.918 58.2685 265.627 58.2685C274.342 58.2685 279.527 53.5133 280.175 52.6838C280.819 51.8613 280.364 51.4075 279.713 51.6793H279.713ZM284.034 49.2935C283.62 48.7556 281.522 48.6553 280.201 48.8175C278.878 48.9751 276.892 49.7836 277.065 50.269C277.154 50.4508 277.334 50.3693 278.243 50.2876C279.154 50.1967 281.707 49.8745 282.239 50.5698C282.774 51.27 281.425 54.6053 281.179 55.1432C280.941 55.6812 281.27 55.8199 281.717 55.4616C282.157 55.1035 282.955 54.176 283.491 52.8636C284.023 51.5439 284.347 49.703 284.034 49.2935Z" fill="#FF9900"/>
<path fill-rule="evenodd" clip-rule="evenodd" d="M269.37 36.7415C269.37 38.6623 269.419 40.2642 268.448 41.97C267.665 43.357 266.423 44.21 265.036 44.21C263.143 44.21 262.041 42.7675 262.041 40.6387C262.041 36.4363 265.806 35.6735 269.37 35.6735V36.7415ZM274.343 48.7591C274.017 49.0503 273.545 49.0712 273.178 48.8769C271.541 47.5178 271.25 46.8868 270.348 45.59C267.644 48.35 265.73 49.1751 262.221 49.1751C258.074 49.1751 254.843 46.6162 254.843 41.4916C254.843 37.4905 257.013 34.7651 260.099 33.4338C262.776 32.2547 266.513 32.0467 269.37 31.7209V31.0829C269.37 29.9109 269.461 28.524 268.774 27.5116C268.171 26.6032 267.02 26.2287 266.007 26.2287C264.128 26.2287 262.45 27.1925 262.041 29.1897C261.957 29.6336 261.631 30.0705 261.188 30.0913L256.403 29.5782C256.001 29.4879 255.557 29.1621 255.668 28.5448C256.77 22.7476 262.006 21 266.694 21C269.093 21 272.227 21.638 274.12 23.4549C276.52 25.6947 276.291 28.6835 276.291 31.9358V39.6193C276.291 41.9285 277.248 42.9409 278.149 44.1892C278.468 44.633 278.538 45.1671 278.136 45.4998C277.13 46.3388 275.341 47.8992 274.356 48.773L274.342 48.7591" fill="black"/>
<path d="M279.713 51.6793C264.331 59 254.785 52.875 248.674 49.1547C248.296 48.9203 247.653 49.2096 248.21 49.8501C250.246 52.3186 256.918 58.2685 265.627 58.2685C274.342 58.2685 279.527 53.5133 280.175 52.6838C280.819 51.8613 280.364 51.4075 279.713 51.6793H279.713ZM284.034 49.2935C283.62 48.7556 281.522 48.6553 280.201 48.8175C278.878 48.9751 276.892 49.7836 277.065 50.269C277.154 50.4508 277.334 50.3693 278.243 50.2876C279.154 50.1967 281.707 49.8745 282.239 50.5698C282.774 51.27 281.425 54.6053 281.179 55.1432C280.941 55.6812 281.27 55.8199 281.717 55.4616C282.157 55.1035 282.955 54.176 283.491 52.8636C284.023 51.5439 284.347 49.703 284.034 49.2935Z" fill="#FF9900"/>
<path fill-rule="evenodd" clip-rule="evenodd" d="M269.37 36.7415C269.37 38.6623 269.419 40.2642 268.448 41.97C267.665 43.357 266.423 44.21 265.036 44.21C263.143 44.21 262.041 42.7675 262.041 40.6387C262.041 36.4363 265.806 35.6735 269.37 35.6735V36.7415ZM274.343 48.7591C274.017 49.0503 273.545 49.0712 273.178 48.8769C271.541 47.5178 271.25 46.8868 270.348 45.59C267.644 48.35 265.73 49.1751 262.221 49.1751C258.074 49.1751 254.843 46.6162 254.843 41.4916C254.843 37.4905 257.013 34.7651 260.099 33.4338C262.776 32.2547 266.513 32.0467 269.37 31.7209V31.0829C269.37 29.9109 269.461 28.524 268.774 27.5116C268.171 26.6032 267.02 26.2287 266.007 26.2287C264.128 26.2287 262.45 27.1925 262.041 29.1897C261.957 29.6336 261.631 30.0705 261.188 30.0913L256.403 29.5782C256.001 29.4879 255.557 29.1621 255.668 28.5448C256.77 22.7476 262.006 21 266.694 21C269.093 21 272.227 21.638 274.12 23.4549C276.52 25.6947 276.291 28.6835 276.291 31.9358V39.6193C276.291 41.9285 277.248 42.9409 278.149 44.1892C278.468 44.633 278.538 45.1671 278.136 45.4998C277.13 46.3388 275.341 47.8992 274.356 48.773L274.342 48.7591" fill="black"/>
</g>
<g clip-path="url(#clip1_608_251)">
<path d="M384.408 101.224C385.254 101.053 392.737 97.6729 393.405 97.2928C394.93 96.425 395.453 94.503 394.572 93C393.692 91.4969 391.742 90.9819 390.217 91.8497C389.549 92.2298 382.838 96.9278 382.264 97.564C381.607 98.2932 381.493 99.336 381.979 100.166C382.466 100.997 383.439 101.421 384.408 101.224Z" fill="#FFC220"/>
<path d="M393.405 108.707C392.737 108.327 385.254 104.947 384.408 104.776C383.439 104.579 382.466 105.003 381.98 105.834C381.493 106.664 381.607 107.707 382.265 108.436C382.838 109.072 389.549 113.77 390.217 114.15C391.742 115.018 393.692 114.503 394.572 113C395.453 111.497 394.93 109.575 393.405 108.707Z" fill="#FFC220"/>
<path d="M377 108.667C376.027 108.667 375.168 109.286 374.856 110.212C374.584 111.02 373.812 119.097 373.812 119.857C373.812 121.593 375.239 123 377 123C378.761 123 380.188 121.593 380.188 119.857C380.188 119.097 379.416 111.02 379.144 110.212C378.832 109.286 377.973 108.667 377 108.667Z" fill="#FFC220"/>
<path d="M369.592 104.776C368.746 104.947 361.263 108.327 360.595 108.707C359.07 109.575 358.547 111.497 359.428 113C360.308 114.503 362.258 115.018 363.783 114.15C364.451 113.77 371.162 109.072 371.736 108.436C372.393 107.707 372.507 106.664 372.02 105.834C371.534 105.003 370.561 104.579 369.592 104.776Z" fill="#FFC220"/>
<path d="M363.783 91.8497C362.258 90.9819 360.308 91.4969 359.428 93C358.547 94.503 359.07 96.425 360.595 97.2928C361.263 97.673 368.746 101.053 369.592 101.224C370.561 101.421 371.534 100.997 372.02 100.166C372.507 99.3358 372.393 98.2931 371.736 97.564C371.162 96.9278 364.451 92.2298 363.783 91.8497Z" fill="#FFC220"/>
<path d="M377 83C375.239 83 373.812 84.407 373.812 86.1426C373.812 86.9028 374.584 94.9805 374.856 95.7883C375.168 96.7141 376.027 97.3325 377 97.3325C377.973 97.3325 378.832 96.7141 379.144 95.7883C379.416 94.9805 380.188 86.9028 380.188 86.1426C380.188 84.407 378.761 83 377 83Z" fill="#FFC220"/>
</g>
<g clip-path="url(#clip2_608_251)">
<path d="M501.653 154.679C501.621 154.486 501.461 154.357 501.301 154.357C501.142 154.357 498.329 154.293 498.329 154.293C498.329 154.293 495.963 151.98 495.74 151.755C495.516 151.53 495.037 151.594 494.877 151.659C494.877 151.659 494.429 151.787 493.694 152.012C493.566 151.594 493.374 151.112 493.119 150.598C492.288 148.992 491.041 148.124 489.571 148.124C489.475 148.124 489.379 148.124 489.251 148.157C489.219 148.092 489.155 148.06 489.123 147.996C488.484 147.289 487.653 146.968 486.662 147C484.744 147.064 482.827 148.446 481.292 150.92C480.205 152.655 479.374 154.839 479.119 156.542C476.913 157.217 475.379 157.699 475.347 157.731C474.228 158.084 474.196 158.116 474.069 159.177C473.973 159.98 471.032 182.631 471.032 182.631L495.452 186.871L506.032 184.237C506 184.205 501.685 154.871 501.653 154.679ZM492.479 152.398C491.904 152.558 491.265 152.783 490.594 152.976C490.594 152.012 490.466 150.631 490.018 149.474C491.457 149.763 492.16 151.402 492.479 152.398ZM489.283 153.394C488.005 153.779 486.598 154.229 485.192 154.647C485.575 153.137 486.342 151.626 487.237 150.631C487.589 150.277 488.069 149.859 488.612 149.602C489.187 150.727 489.315 152.301 489.283 153.394ZM486.694 148.285C487.142 148.285 487.525 148.382 487.845 148.574C487.333 148.863 486.822 149.249 486.342 149.763C485.128 151.08 484.201 153.137 483.817 155.096C482.667 155.45 481.516 155.803 480.461 156.124C481.132 153.04 483.721 148.382 486.694 148.285Z" fill="#95BF47"/>
<path d="M501.301 154.357C501.141 154.357 498.329 154.293 498.329 154.293C498.329 154.293 495.963 151.98 495.74 151.755C495.644 151.659 495.548 151.626 495.42 151.594V186.839L506 184.205C506 184.205 501.685 154.871 501.653 154.647C501.621 154.486 501.461 154.357 501.301 154.357Z" fill="#5E8E3E"/>
<path d="M489.539 159.819L488.324 164.446C488.324 164.446 486.95 163.803 485.32 163.932C482.922 164.092 482.922 165.602 482.922 165.988C483.05 168.044 488.452 168.494 488.772 173.345C488.995 177.169 486.758 179.771 483.53 179.964C479.63 180.221 477.489 177.908 477.489 177.908L478.32 174.374C478.32 174.374 480.461 176.012 482.187 175.884C483.306 175.819 483.721 174.888 483.689 174.245C483.53 171.546 479.119 171.707 478.831 167.273C478.607 163.546 481.036 159.755 486.406 159.434C488.484 159.273 489.539 159.819 489.539 159.819Z" fill="white"/>
</g>
<path d="M151.478 99.9319V98.525C150.986 98.4477 150.489 98.4053 149.991 98.3982C145.167 98.388 140.897 101.49 139.449 106.055C138 110.621 139.71 115.591 143.669 118.324C142.217 116.783 141.246 114.857 140.873 112.779C140.5 110.702 140.741 108.561 141.566 106.617C142.392 104.672 143.767 103.006 145.526 101.82C147.285 100.634 149.352 99.9781 151.478 99.932L151.478 99.9319Z" fill="#25F4EE"/>
<path d="M151.746 115.868C154.443 115.865 156.659 113.756 156.778 111.083V87.2244H161.17C161.08 86.7258 161.038 86.2201 161.042 85.7137H155.034V109.549C154.934 112.236 152.712 114.365 150.003 114.369C149.193 114.362 148.396 114.165 147.678 113.793C148.144 114.432 148.755 114.954 149.461 115.314C150.168 115.675 150.951 115.865 151.746 115.868ZM169.374 95.3193V93.9932C167.758 93.9938 166.177 93.5204 164.831 92.6326C166.011 93.9941 167.606 94.9372 169.374 95.3193Z" fill="#25F4EE"/>
<path d="M164.831 92.6326C163.504 91.1339 162.773 89.2073 162.774 87.2127H161.17C161.377 88.3155 161.809 89.3648 162.438 90.2967C163.067 91.2285 163.881 92.0233 164.831 92.6326ZM149.991 104.36C148.866 104.366 147.776 104.744 146.893 105.436C146.01 106.127 145.385 107.092 145.118 108.176C144.851 109.26 144.956 110.402 145.418 111.42C145.88 112.437 146.672 113.273 147.667 113.793C147.123 113.047 146.797 112.167 146.725 111.249C146.654 110.331 146.839 109.412 147.261 108.592C147.683 107.772 148.326 107.084 149.117 106.604C149.908 106.124 150.818 105.87 151.746 105.871C152.25 105.877 152.751 105.955 153.233 106.102V100.036C152.741 99.9624 152.244 99.9239 151.746 99.9204H151.479V104.533C150.994 104.404 150.493 104.346 149.991 104.36Z" fill="#FE2C55"/>
<path d="M169.374 95.3193V99.9319C166.381 99.9261 163.466 98.9861 161.042 97.2451V109.365C161.029 115.412 156.085 120.308 149.991 120.308C147.727 120.312 145.519 119.619 143.669 118.325C145.177 119.934 147.139 121.056 149.299 121.544C151.459 122.031 153.717 121.862 155.779 121.058C157.84 120.255 159.61 118.853 160.858 117.037C162.106 115.221 162.773 113.074 162.774 110.876V98.7904C165.206 100.52 168.125 101.448 171.117 101.443V95.5034C170.531 95.5016 169.947 95.4399 169.374 95.3193Z" fill="#FE2C55"/>
<path d="M161.042 109.365V97.2451C163.474 98.9762 166.393 99.9041 169.386 99.8973V95.2848C167.618 94.9143 166.019 93.9834 164.831 92.6326C163.881 92.0233 163.067 91.2285 162.438 90.2967C161.808 89.3648 161.377 88.3155 161.17 87.2127H156.778V111.083C156.735 112.122 156.367 113.122 155.725 113.944C155.083 114.766 154.199 115.369 153.196 115.67C152.193 115.97 151.12 115.953 150.127 115.621C149.134 115.289 148.27 114.658 147.655 113.816C146.66 113.296 145.868 112.461 145.406 111.443C144.944 110.425 144.838 109.283 145.105 108.199C145.372 107.115 145.997 106.15 146.88 105.459C147.764 104.767 148.854 104.389 149.979 104.383C150.484 104.387 150.985 104.465 151.467 104.614V100.001C149.329 100.037 147.248 100.689 145.478 101.879C143.708 103.068 142.324 104.742 141.496 106.698C140.669 108.654 140.432 110.807 140.816 112.894C141.2 114.981 142.187 116.912 143.658 118.451C145.525 119.703 147.737 120.352 149.991 120.308C156.085 120.308 161.029 115.412 161.042 109.365Z" fill="black"/>
<g clip-path="url(#clip3_608_251)">
<path d="M44 187.36C44.3644 187.178 53.8385 183.079 56.8447 180.619C59.942 178.068 61.5818 174.424 61.5818 170.052V149.555L61.3085 149.464C53.7474 145.364 44.3644 145.638 43.9089 145.638C43.5445 145.638 34.1615 145.364 26.6004 149.464L26.4182 149.555V170.143C26.4182 174.516 28.058 178.159 31.1553 180.71C34.1615 183.17 43.6356 187.269 44 187.36Z" fill="#341B14"/>
<path d="M43.9999 187.816C43.9999 187.816 33.9792 183.443 30.8819 180.983C27.6024 178.251 26.0537 174.516 26.0537 170.234V148.917C33.9792 144.636 43.9999 145 43.9999 145C43.9999 145 54.0206 144.636 61.9461 148.917V170.143C61.9461 174.424 60.3974 178.159 57.1179 180.892C54.0206 183.443 43.9999 187.816 43.9999 187.816ZM27.5113 170.234C27.5113 174.242 28.9688 177.522 31.7928 179.799C34.3436 181.894 41.9046 185.265 43.9999 186.176C46.0951 185.265 53.7473 181.803 56.2069 179.799C59.0309 177.522 60.4885 174.151 60.4885 170.234V149.282C49.9212 148.28 37.3498 148.826 27.5113 157.936V170.234Z" fill="#FFB406"/>
<path d="M54.1118 167.228C55.4783 168.048 56.0249 168.594 56.116 169.596C56.116 170.689 55.3872 171.327 54.2029 171.327C53.2008 171.327 52.0166 170.781 51.1967 170.052V172.967C52.1988 173.513 53.383 173.969 54.6584 173.969C57.7557 173.969 59.2133 171.783 59.2133 169.778C59.3044 167.957 58.7578 166.499 56.116 164.95C54.9317 164.222 54.0207 163.766 54.0207 162.673C54.0207 161.58 55.0228 161.124 55.8427 161.124C56.9358 161.124 58.029 161.762 58.6667 162.4V159.667C58.1201 159.211 56.9358 158.574 55.205 158.665C53.1097 158.756 50.9234 160.213 50.9234 162.764C51.0145 164.495 51.5611 165.77 54.1118 167.228ZM43.3623 173.787C43.6356 173.878 44.0911 173.969 44.8199 173.969C48.3727 173.969 50.3768 170.781 50.3768 166.226C50.3768 161.58 48.2816 158.756 44.5466 158.756C42.8158 158.756 41.4493 159.12 40.265 159.849V180.437H43.3623V173.787ZM43.3623 161.398C43.6356 161.306 44.0911 161.124 44.4555 161.124C46.2775 161.124 47.0062 162.582 47.0062 166.135C47.0062 169.596 46.0953 171.236 44.2733 171.236C43.8178 171.236 43.4534 171.145 43.2712 171.054V161.398H43.3623ZM33.7971 173.969C35.7102 173.969 37.3499 173.513 38.5342 172.694V158.938H35.3458V170.872C34.9814 171.145 34.5259 171.236 33.8882 171.236C32.4307 171.236 32.2485 169.87 32.2485 169.05V158.938H29.0601V168.867C29.0601 172.238 30.6998 173.969 33.7971 173.969ZM55.0228 186.267V188.362H55.3872V187.542H55.4783L56.0249 188.362H56.4804C56.4804 188.362 55.9338 187.542 55.8427 187.451C56.116 187.36 56.2982 187.178 56.2982 186.905C56.2982 186.631 56.116 186.267 55.5694 186.267H55.0228ZM55.5694 186.54C55.8427 186.54 55.9338 186.723 55.9338 186.814C55.9338 186.996 55.8427 187.178 55.4783 187.178H55.3872V186.54H55.5694Z" fill="#FFB406"/>
<path d="M57.027 187.269C57.027 187.998 56.3893 188.636 55.6605 188.636C54.9318 188.636 54.2941 187.998 54.2941 187.269C54.2941 186.54 54.9318 185.903 55.6605 185.903C56.4804 185.903 57.027 186.54 57.027 187.269ZM55.6605 185.538C54.7496 185.538 53.9297 186.267 53.9297 187.269C53.9297 188.18 54.6585 189 55.6605 189C56.5715 189 57.3914 188.271 57.3914 187.269C57.3914 186.358 56.5715 185.538 55.6605 185.538Z" fill="#FFB406"/>
</g>
<circle cx="3" cy="3" r="3" transform="matrix(-1 0 0 1 47 203)" fill="#D9D9D9"/>
<path d="M44 208H489H44ZM490.25 289C490.25 303.497 478.497 315.25 464 315.25H69C54.5025 315.25 42.75 303.497 42.75 289H45.25C45.25 302.117 55.8832 312.75 69 312.75H464C477.117 312.75 487.75 302.117 487.75 289H490.25ZM69 315.25C54.5025 315.25 42.75 303.497 42.75 289V208H45.25V289C45.25 302.117 55.8832 312.75 69 312.75V315.25ZM490.25 208V289C490.25 303.497 478.497 315.25 464 315.25V312.75C477.117 312.75 487.75 302.117 487.75 289V208H490.25Z" fill="#D9D9D9"/>
<circle cx="3" cy="3" r="3" transform="matrix(-1 0 0 1 492 203)" fill="#D9D9D9"/>
<rect x="230.5" y="302.5" width="72" height="23" rx="7.5" fill="#F8FAFC" fill-opacity="0.5" stroke="white"/>
<g filter="url(#filter11_d_608_251)">
<rect x="233" y="305" width="67" height="18" rx="6" fill="#F1F5F9" fill-opacity="0.5" shape-rendering="crispEdges"/>
<rect x="233.5" y="305.5" width="66" height="17" rx="5.5" stroke="#F1F5F9" shape-rendering="crispEdges"/>
</g>
<path d="M241.707 310.455V317H240.719V310.455H241.707ZM244.024 314.085V317H243.068V312.091H243.985V312.89H244.046C244.159 312.63 244.336 312.421 244.577 312.263C244.82 312.106 245.125 312.027 245.494 312.027C245.828 312.027 246.121 312.097 246.373 312.238C246.624 312.376 246.819 312.583 246.958 312.858C247.096 313.133 247.165 313.473 247.165 313.877V317H246.21V313.993C246.21 313.637 246.117 313.359 245.932 313.158C245.746 312.956 245.492 312.855 245.168 312.855C244.946 312.855 244.749 312.903 244.577 312.999C244.406 313.094 244.271 313.235 244.171 313.42C244.073 313.604 244.024 313.825 244.024 314.085ZM250.739 312.091V312.858H248.057V312.091H250.739ZM248.776 310.915H249.732V315.559C249.732 315.744 249.76 315.884 249.815 315.977C249.87 316.069 249.942 316.132 250.029 316.166C250.119 316.198 250.216 316.214 250.32 316.214C250.397 316.214 250.464 316.208 250.521 316.198C250.579 316.187 250.624 316.179 250.656 316.172L250.828 316.962C250.773 316.983 250.694 317.004 250.592 317.026C250.489 317.049 250.362 317.062 250.208 317.064C249.957 317.068 249.722 317.023 249.505 316.93C249.288 316.836 249.112 316.691 248.978 316.495C248.843 316.299 248.776 316.053 248.776 315.757V310.915ZM253.859 317.099C253.375 317.099 252.959 316.996 252.609 316.789C252.262 316.58 251.993 316.287 251.804 315.91C251.616 315.531 251.522 315.087 251.522 314.577C251.522 314.075 251.616 313.631 251.804 313.248C251.993 312.864 252.258 312.565 252.596 312.35C252.937 312.135 253.336 312.027 253.792 312.027C254.069 312.027 254.337 312.073 254.597 312.164C254.857 312.256 255.09 312.4 255.297 312.596C255.504 312.792 255.667 313.047 255.786 313.36C255.905 313.671 255.965 314.049 255.965 314.494V314.833H252.063V314.117H255.028C255.028 313.866 254.977 313.643 254.875 313.449C254.773 313.253 254.629 313.099 254.444 312.986C254.26 312.873 254.045 312.816 253.798 312.816C253.53 312.816 253.295 312.882 253.095 313.015C252.897 313.145 252.743 313.315 252.635 313.526C252.528 313.735 252.475 313.962 252.475 314.207V314.766C252.475 315.094 252.532 315.373 252.647 315.603C252.765 315.833 252.928 316.009 253.136 316.131C253.345 316.25 253.589 316.31 253.868 316.31C254.049 316.31 254.215 316.284 254.364 316.233C254.513 316.18 254.642 316.101 254.75 315.996C254.859 315.892 254.942 315.763 255 315.61L255.904 315.773C255.832 316.039 255.702 316.272 255.514 316.473C255.329 316.671 255.096 316.825 254.814 316.936C254.535 317.045 254.217 317.099 253.859 317.099ZM259.083 318.943C258.694 318.943 258.358 318.892 258.077 318.79C257.798 318.688 257.57 318.552 257.393 318.384C257.216 318.216 257.084 318.031 256.996 317.831L257.818 317.492C257.875 317.586 257.952 317.685 258.048 317.789C258.146 317.896 258.278 317.987 258.444 318.061C258.613 318.136 258.829 318.173 259.093 318.173C259.455 318.173 259.755 318.085 259.991 317.908C260.228 317.733 260.346 317.454 260.346 317.07V316.105H260.285C260.228 316.21 260.145 316.326 260.036 316.453C259.929 316.581 259.782 316.692 259.595 316.786C259.407 316.88 259.163 316.926 258.863 316.926C258.475 316.926 258.126 316.836 257.815 316.655C257.506 316.472 257.261 316.202 257.08 315.846C256.901 315.488 256.811 315.048 256.811 314.526C256.811 314.004 256.9 313.557 257.076 313.184C257.255 312.811 257.5 312.526 257.811 312.327C258.123 312.127 258.475 312.027 258.869 312.027C259.174 312.027 259.42 312.078 259.608 312.18C259.795 312.281 259.941 312.398 260.045 312.532C260.152 312.666 260.234 312.784 260.292 312.887H260.362V312.091H261.298V317.109C261.298 317.531 261.2 317.877 261.004 318.147C260.808 318.418 260.543 318.618 260.208 318.748C259.876 318.878 259.501 318.943 259.083 318.943ZM259.074 316.134C259.349 316.134 259.581 316.07 259.771 315.942C259.962 315.812 260.107 315.627 260.205 315.386C260.305 315.143 260.355 314.852 260.355 314.513C260.355 314.183 260.306 313.892 260.208 313.641C260.11 313.39 259.967 313.194 259.777 313.053C259.587 312.91 259.353 312.839 259.074 312.839C258.786 312.839 258.547 312.913 258.355 313.062C258.163 313.21 258.018 313.41 257.92 313.663C257.824 313.917 257.776 314.2 257.776 314.513C257.776 314.835 257.825 315.118 257.923 315.36C258.021 315.603 258.166 315.793 258.358 315.929C258.552 316.066 258.79 316.134 259.074 316.134ZM262.58 317V312.091H263.504V312.871H263.555C263.644 312.607 263.802 312.399 264.028 312.248C264.256 312.094 264.513 312.017 264.801 312.017C264.861 312.017 264.931 312.02 265.012 312.024C265.095 312.028 265.16 312.033 265.207 312.04V312.954C265.169 312.943 265.1 312.931 265.002 312.919C264.904 312.904 264.806 312.896 264.708 312.896C264.483 312.896 264.281 312.944 264.104 313.04C263.93 313.134 263.791 313.265 263.689 313.433C263.587 313.599 263.536 313.789 263.536 314.002V317H262.58ZM267.419 317.109C267.108 317.109 266.826 317.051 266.575 316.936C266.324 316.819 266.124 316.65 265.977 316.428C265.832 316.206 265.76 315.935 265.76 315.613C265.76 315.336 265.813 315.108 265.92 314.929C266.026 314.75 266.17 314.608 266.351 314.504C266.532 314.4 266.735 314.321 266.958 314.267C267.182 314.214 267.41 314.174 267.642 314.146C267.936 314.112 268.175 314.084 268.358 314.063C268.542 314.039 268.675 314.002 268.758 313.951C268.841 313.9 268.882 313.817 268.882 313.702V313.679C268.882 313.4 268.804 313.184 268.646 313.031C268.49 312.877 268.258 312.8 267.949 312.8C267.627 312.8 267.374 312.872 267.189 313.015C267.005 313.155 266.879 313.312 266.808 313.484L265.91 313.28C266.017 312.982 266.172 312.741 266.377 312.558C266.583 312.372 266.821 312.238 267.089 312.155C267.358 312.07 267.64 312.027 267.936 312.027C268.132 312.027 268.34 312.05 268.56 312.097C268.781 312.142 268.988 312.225 269.18 312.347C269.374 312.468 269.532 312.642 269.656 312.868C269.779 313.091 269.841 313.382 269.841 313.74V317H268.908V316.329H268.87C268.808 316.452 268.715 316.574 268.592 316.693C268.468 316.812 268.309 316.912 268.115 316.99C267.922 317.069 267.689 317.109 267.419 317.109ZM267.626 316.342C267.891 316.342 268.116 316.289 268.304 316.185C268.494 316.081 268.637 315.944 268.735 315.776C268.836 315.605 268.886 315.423 268.886 315.229V314.597C268.852 314.631 268.786 314.663 268.688 314.692C268.592 314.72 268.482 314.745 268.358 314.766C268.235 314.785 268.114 314.803 267.997 314.82C267.88 314.835 267.782 314.848 267.703 314.859C267.518 314.882 267.348 314.922 267.195 314.977C267.044 315.032 266.922 315.112 266.831 315.217C266.741 315.319 266.696 315.455 266.696 315.626C266.696 315.862 266.784 316.041 266.958 316.163C267.133 316.282 267.356 316.342 267.626 316.342ZM273.406 312.091V312.858H270.724V312.091H273.406ZM271.443 310.915H272.399V315.559C272.399 315.744 272.427 315.884 272.482 315.977C272.537 316.069 272.609 316.132 272.696 316.166C272.786 316.198 272.883 316.214 272.987 316.214C273.064 316.214 273.131 316.208 273.188 316.198C273.246 316.187 273.291 316.179 273.323 316.172L273.495 316.962C273.44 316.983 273.361 317.004 273.259 317.026C273.156 317.049 273.028 317.062 272.875 317.064C272.624 317.068 272.389 317.023 272.172 316.93C271.955 316.836 271.779 316.691 271.645 316.495C271.51 316.299 271.443 316.053 271.443 315.757V310.915ZM274.463 317V312.091H275.418V317H274.463ZM274.945 311.333C274.779 311.333 274.636 311.278 274.517 311.167C274.4 311.054 274.341 310.92 274.341 310.765C274.341 310.607 274.4 310.473 274.517 310.362C274.636 310.249 274.779 310.192 274.945 310.192C275.112 310.192 275.253 310.249 275.37 310.362C275.49 310.473 275.549 310.607 275.549 310.765C275.549 310.92 275.49 311.054 275.37 311.167C275.253 311.278 275.112 311.333 274.945 311.333ZM278.772 317.099C278.312 317.099 277.91 316.994 277.567 316.783C277.224 316.572 276.957 316.277 276.768 315.897C276.578 315.518 276.483 315.075 276.483 314.568C276.483 314.059 276.578 313.613 276.768 313.232C276.957 312.85 277.224 312.554 277.567 312.343C277.91 312.132 278.312 312.027 278.772 312.027C279.232 312.027 279.634 312.132 279.977 312.343C280.32 312.554 280.586 312.85 280.776 313.232C280.965 313.613 281.06 314.059 281.06 314.568C281.06 315.075 280.965 315.518 280.776 315.897C280.586 316.277 280.32 316.572 279.977 316.783C279.634 316.994 279.232 317.099 278.772 317.099ZM278.775 316.297C279.073 316.297 279.32 316.218 279.516 316.06C279.712 315.903 279.857 315.693 279.951 315.431C280.047 315.169 280.095 314.88 280.095 314.565C280.095 314.251 280.047 313.964 279.951 313.702C279.857 313.437 279.712 313.225 279.516 313.066C279.32 312.906 279.073 312.826 278.775 312.826C278.475 312.826 278.225 312.906 278.027 313.066C277.831 313.225 277.685 313.437 277.589 313.702C277.495 313.964 277.449 314.251 277.449 314.565C277.449 314.88 277.495 315.169 277.589 315.431C277.685 315.693 277.831 315.903 278.027 316.06C278.225 316.218 278.475 316.297 278.775 316.297ZM283.082 314.085V317H282.127V312.091H283.044V312.89H283.105C283.218 312.63 283.395 312.421 283.635 312.263C283.878 312.106 284.184 312.027 284.553 312.027C284.887 312.027 285.18 312.097 285.431 312.238C285.683 312.376 285.878 312.583 286.016 312.858C286.155 313.133 286.224 313.473 286.224 313.877V317H285.268V313.993C285.268 313.637 285.176 313.359 284.99 313.158C284.805 312.956 284.55 312.855 284.227 312.855C284.005 312.855 283.808 312.903 283.635 312.999C283.465 313.094 283.33 313.235 283.229 313.42C283.131 313.604 283.082 313.825 283.082 314.085ZM291.184 313.289L290.318 313.443C290.282 313.332 290.224 313.227 290.146 313.126C290.069 313.026 289.964 312.944 289.832 312.88C289.7 312.816 289.535 312.784 289.337 312.784C289.066 312.784 288.841 312.845 288.659 312.967C288.478 313.086 288.388 313.24 288.388 313.43C288.388 313.594 288.449 313.726 288.57 313.826C288.691 313.926 288.887 314.009 289.158 314.072L289.938 314.251C290.39 314.356 290.726 314.517 290.948 314.734C291.169 314.951 291.28 315.234 291.28 315.581C291.28 315.875 291.195 316.137 291.025 316.367C290.856 316.595 290.621 316.774 290.318 316.904C290.018 317.034 289.669 317.099 289.273 317.099C288.723 317.099 288.275 316.982 287.928 316.748C287.58 316.511 287.367 316.175 287.288 315.741L288.212 315.6C288.27 315.841 288.388 316.023 288.567 316.147C288.746 316.268 288.979 316.329 289.267 316.329C289.58 316.329 289.83 316.264 290.018 316.134C290.205 316.002 290.299 315.841 290.299 315.651C290.299 315.498 290.241 315.369 290.126 315.265C290.013 315.16 289.84 315.081 289.605 315.028L288.775 314.846C288.316 314.741 287.978 314.575 287.758 314.347C287.541 314.119 287.432 313.831 287.432 313.481C287.432 313.191 287.513 312.938 287.675 312.721C287.837 312.503 288.061 312.334 288.346 312.212C288.632 312.089 288.959 312.027 289.327 312.027C289.858 312.027 290.276 312.142 290.58 312.372C290.885 312.6 291.086 312.906 291.184 313.289Z" fill="black"/>
<defs>
<filter id="filter0_d_608_251" x="222" y="0" width="89" height="89" filterUnits="userSpaceOnUse" color-interpolation-filters="sRGB">
<feFlood flood-opacity="0" result="BackgroundImageFix"/>
<feColorMatrix in="SourceAlpha" type="matrix" values="0 0 0 0 0 0 0 0 0 0 0 0 0 0 0 0 0 0 127 0" result="hardAlpha"/>
<feOffset dy="4"/>
<feGaussianBlur stdDeviation="6"/>
<feComposite in2="hardAlpha" operator="out"/>
<feColorMatrix type="matrix" values="0 0 0 0 0 0 0 0 0 0 0 0 0 0 0 0 0 0 0.15 0"/>
<feBlend mode="normal" in2="BackgroundImageFix" result="effect1_dropShadow_608_251"/>
<feBlend mode="normal" in="SourceGraphic" in2="effect1_dropShadow_608_251" result="shape"/>
</filter>
<filter id="filter1_d_608_251" x="333" y="63" width="89" height="89" filterUnits="userSpaceOnUse" color-interpolation-filters="sRGB">
<feFlood flood-opacity="0" result="BackgroundImageFix"/>
<feColorMatrix in="SourceAlpha" type="matrix" values="0 0 0 0 0 0 0 0 0 0 0 0 0 0 0 0 0 0 127 0" result="hardAlpha"/>
<feOffset dy="4"/>
<feGaussianBlur stdDeviation="6"/>
<feComposite in2="hardAlpha" operator="out"/>
<feColorMatrix type="matrix" values="0 0 0 0 0 0 0 0 0 0 0 0 0 0 0 0 0 0 0.15 0"/>
<feBlend mode="normal" in2="BackgroundImageFix" result="effect1_dropShadow_608_251"/>
<feBlend mode="normal" in="SourceGraphic" in2="effect1_dropShadow_608_251" result="shape"/>
</filter>
<filter id="filter2_d_608_251" x="443.946" y="127.199" width="89" height="89" filterUnits="userSpaceOnUse" color-interpolation-filters="sRGB">
<feFlood flood-opacity="0" result="BackgroundImageFix"/>
<feColorMatrix in="SourceAlpha" type="matrix" values="0 0 0 0 0 0 0 0 0 0 0 0 0 0 0 0 0 0 127 0" result="hardAlpha"/>
<feOffset dy="4"/>
<feGaussianBlur stdDeviation="6"/>
<feComposite in2="hardAlpha" operator="out"/>
<feColorMatrix type="matrix" values="0 0 0 0 0 0 0 0 0 0 0 0 0 0 0 0 0 0 0.15 0"/>
<feBlend mode="normal" in2="BackgroundImageFix" result="effect1_dropShadow_608_251"/>
<feBlend mode="normal" in="SourceGraphic" in2="effect1_dropShadow_608_251" result="shape"/>
</filter>
<filter id="filter3_d_608_251" x="110.946" y="63.1987" width="89" height="89" filterUnits="userSpaceOnUse" color-interpolation-filters="sRGB">
<feFlood flood-opacity="0" result="BackgroundImageFix"/>
<feColorMatrix in="SourceAlpha" type="matrix" values="0 0 0 0 0 0 0 0 0 0 0 0 0 0 0 0 0 0 127 0" result="hardAlpha"/>
<feOffset dy="4"/>
<feGaussianBlur stdDeviation="6"/>
<feComposite in2="hardAlpha" operator="out"/>
<feColorMatrix type="matrix" values="0 0 0 0 0 0 0 0 0 0 0 0 0 0 0 0 0 0 0.15 0"/>
<feBlend mode="normal" in2="BackgroundImageFix" result="effect1_dropShadow_608_251"/>
<feBlend mode="normal" in="SourceGraphic" in2="effect1_dropShadow_608_251" result="shape"/>
</filter>
<filter id="filter4_d_608_251" x="0" y="127.397" width="89" height="89" filterUnits="userSpaceOnUse" color-interpolation-filters="sRGB">
<feFlood flood-opacity="0" result="BackgroundImageFix"/>
<feColorMatrix in="SourceAlpha" type="matrix" values="0 0 0 0 0 0 0 0 0 0 0 0 0 0 0 0 0 0 127 0" result="hardAlpha"/>
<feOffset dy="4"/>
<feGaussianBlur stdDeviation="6"/>
<feComposite in2="hardAlpha" operator="out"/>
<feColorMatrix type="matrix" values="0 0 0 0 0 0 0 0 0 0 0 0 0 0 0 0 0 0 0.15 0"/>
<feBlend mode="normal" in2="BackgroundImageFix" result="effect1_dropShadow_608_251"/>
<feBlend mode="normal" in="SourceGraphic" in2="effect1_dropShadow_608_251" result="shape"/>
</filter>
<filter id="filter5_f_608_251" x="234.6" y="8.6" width="63.8" height="63.8" filterUnits="userSpaceOnUse" color-interpolation-filters="sRGB">
<feFlood flood-opacity="0" result="BackgroundImageFix"/>
<feBlend mode="normal" in="SourceGraphic" in2="BackgroundImageFix" result="shape"/>
<feGaussianBlur stdDeviation="5.2" result="effect1_foregroundBlur_608_251"/>
</filter>
<filter id="filter6_f_608_251" x="123.6" y="72.6" width="63.8" height="63.8" filterUnits="userSpaceOnUse" color-interpolation-filters="sRGB">
<feFlood flood-opacity="0" result="BackgroundImageFix"/>
<feBlend mode="normal" in="SourceGraphic" in2="BackgroundImageFix" result="shape"/>
<feGaussianBlur stdDeviation="5.2" result="effect1_foregroundBlur_608_251"/>
</filter>
<filter id="filter7_f_608_251" x="345.6" y="71.6" width="63.8" height="63.8" filterUnits="userSpaceOnUse" color-interpolation-filters="sRGB">
<feFlood flood-opacity="0" result="BackgroundImageFix"/>
<feBlend mode="normal" in="SourceGraphic" in2="BackgroundImageFix" result="shape"/>
<feGaussianBlur stdDeviation="5.2" result="effect1_foregroundBlur_608_251"/>
</filter>
<filter id="filter8_f_608_251" x="452.6" y="132.6" width="70.8" height="70.8" filterUnits="userSpaceOnUse" color-interpolation-filters="sRGB">
<feFlood flood-opacity="0" result="BackgroundImageFix"/>
<feBlend mode="normal" in="SourceGraphic" in2="BackgroundImageFix" result="shape"/>
<feGaussianBlur stdDeviation="5.2" result="effect1_foregroundBlur_608_251"/>
</filter>
<filter id="filter9_f_608_251" x="9.6" y="131.6" width="70.8" height="70.8" filterUnits="userSpaceOnUse" color-interpolation-filters="sRGB">
<feFlood flood-opacity="0" result="BackgroundImageFix"/>
<feBlend mode="normal" in="SourceGraphic" in2="BackgroundImageFix" result="shape"/>
<feGaussianBlur stdDeviation="5.2" result="effect1_foregroundBlur_608_251"/>
</filter>
<filter id="filter11_d_608_251" x="221" y="297" width="91" height="42" filterUnits="userSpaceOnUse" color-interpolation-filters="sRGB">
<feFlood flood-opacity="0" result="BackgroundImageFix"/>
<feColorMatrix in="SourceAlpha" type="matrix" values="0 0 0 0 0 0 0 0 0 0 0 0 0 0 0 0 0 0 127 0" result="hardAlpha"/>
<feOffset dy="4"/>
<feGaussianBlur stdDeviation="6"/>
<feComposite in2="hardAlpha" operator="out"/>
<feColorMatrix type="matrix" values="0 0 0 0 0 0 0 0 0 0 0 0 0 0 0 0 0 0 0.15 0"/>
<feBlend mode="normal" in2="BackgroundImageFix" result="effect1_dropShadow_608_251"/>
<feBlend mode="normal" in="SourceGraphic" in2="effect1_dropShadow_608_251" result="shape"/>
</filter>
<clipPath id="clip0_608_251">
<rect width="38" height="38" fill="white" transform="translate(247 21)"/>
</clipPath>
<clipPath id="clip1_608_251">
<rect width="36" height="40" fill="white" transform="translate(359 83)"/>
</clipPath>
<clipPath id="clip2_608_251">
<rect width="35" height="40" fill="white" transform="translate(471 147)"/>
</clipPath>
<clipPath id="clip3_608_251">
<rect width="44" height="44" fill="white" transform="translate(22 145)"/>
</clipPath>
</defs>
</svg>
